# xmcd
#
# Track frame offsets:
# 150
# 10700
# 18695
# 32782
# 46782
# 59210
# 70405
# 83620
# 97217
# 110625
# 123902
# 138060
#
# Disc length: 2044 seconds
#
#
# Revision: 0
# Processed by: cddbd v1.5.2PL0 Copyright (c) Steve Scherf et al.
# Submitted via: FreeRIP 2.951 
#
DISCID=a207fa0c
DTITLE=Oktoberfest Blumenau - cd 2 - 
DYEAR=1900
DGENRE=
TTITLE0=De Novo Outra Vez - Banda Cavalinho Branco
TTITLE1=Hallo blumenau - Banda do Caneco
TTITLE2=Schürzenjägrezeit - Alois e Michael
TTITLE3=Todos Os Caminhos Levam a Blumenau - Os Montanari
TTITLE4=Uns Ziagt Koaner Die Ledrhos´n Aus - Banda do Caneco
TTITLE5=Blumenau - Banda Cavalinho Branco
TTITLE6=Heyo Heyo - Os Montanari
TTITLE7=Eu Vou Pra Blumenau - Banda do Caneco
TTITLE8=Zic Zac - Os Montanari
TTITLE9=Happy Days In Blumenau - Unterbrunner Haderlumpen
TTITLE10=Die Letzen Ritter - Banda Caneco
TTITLE11=Chopp Motorrad - Banda Cavalinho Branco
EXTD=
EXTT0=
EXTT1=
EXTT2=
EXTT3=
EXTT4=
EXTT5=
EXTT6=
EXTT7=
EXTT8=
EXTT9=
EXTT10=
EXTT11=
PLAYORDER=
